<?xml version="1.0" encoding="UTF-8" standalone="no"?>
<!-- Created with Inkscape (http://www.inkscape.org/) -->

<svg
   xmlns:dc="http://purl.org/dc/elements/1.1/"
   xmlns:cc="http://creativecommons.org/ns#"
   xmlns:rdf="http://www.w3.org/1999/02/22-rdf-syntax-ns#"
   xmlns:svg="http://www.w3.org/2000/svg"
   xmlns="http://www.w3.org/2000/svg"
   xmlns:xlink="http://www.w3.org/1999/xlink"
   xmlns:sodipodi="http://sodipodi.sourceforge.net/DTD/sodipodi-0.dtd"
   xmlns:inkscape="http://www.inkscape.org/namespaces/inkscape"
   width="199.85493"
   height="189.40318"
   id="svg2"
   version="1.1"
   inkscape:version="0.48.2 r9819"
   sodipodi:docname="cow.svg">
  <defs
     id="defs4">
    <linearGradient
       inkscape:collect="always"
       id="linearGradient3765">
      <stop
         style="stop-color:#008000;stop-opacity:1;"
         offset="0"
         id="stop3767" />
      <stop
         style="stop-color:#008000;stop-opacity:0;"
         offset="1"
         id="stop3769" />
    </linearGradient>
    <linearGradient
       inkscape:collect="always"
       xlink:href="#linearGradient3765"
       id="linearGradient5720"
       gradientUnits="userSpaceOnUse"
       x1="391.42856"
       y1="598.07648"
       x2="394.28574"
       y2="1018.0765"
       gradientTransform="translate(-1277.9009,-3.7015549)" />
  </defs>
  <sodipodi:namedview
     id="base"
     pagecolor="#ffffff"
     bordercolor="#666666"
     borderopacity="1.0"
     inkscape:pageopacity="0.0"
     inkscape:pageshadow="2"
     inkscape:zoom="0.82471298"
     inkscape:cx="205.39998"
     inkscape:cy="179.79621"
     inkscape:document-units="px"
     inkscape:current-layer="layer1"
     showgrid="false"
     showguides="true"
     inkscape:guide-bbox="true"
     inkscape:window-width="1384"
     inkscape:window-height="856"
     inkscape:window-x="0"
     inkscape:window-y="0"
     inkscape:window-maximized="1"
     showborder="false"
     fit-margin-top="0"
     fit-margin-left="0"
     fit-margin-right="0"
     fit-margin-bottom="0" />
  <metadata
     id="metadata7">
    <rdf:RDF>
      <cc:Work
         rdf:about="">
        <dc:format>image/svg+xml</dc:format>
        <dc:type
           rdf:resource="http://purl.org/dc/dcmitype/StillImage" />
        <dc:title></dc:title>
      </cc:Work>
    </rdf:RDF>
  </metadata>
  <g
     inkscape:label="Layer 1"
     inkscape:groupmode="layer"
     id="layer1"
     transform="translate(1617.7431,-310.91008)">
    <g
       id="cow"
       transform="matrix(0.48669564,0,0,0.48669564,-830.42911,256.77323)">
      <path
         transform="translate(-1617.6722,111.23348)"
         inkscape:connector-curvature="0"
         id="path6995"
         d="m 300.71068,348.54128 31.52612,1.21254 1.21254,-105.49125 -61.23342,-21.82577 27.88849,123.07312 z"
         style="fill:#ffffff;stroke:none" />
      <g
         id="g5033"
         transform="matrix(-0.7182039,0.03676157,0.03256881,0.65718005,-1862.5725,-81.465315)">
        <g
           style="fill:#ffffff"
           transform="translate(-942.15329,36.466593)"
           id="g5035">
          <g
             style="fill:#ffffff"
             transform="matrix(0.4749,0,0,0.6102,293.53,138.46)"
             id="g5037">
            <g
               style="fill:#ffffff"
               transform="translate(434.29,-397.14)"
               id="g5039">
              <path
                 d="m -268.6,1390.8 c -7.9,-1.3 -20.59,-8.2 -27.09,-23.8 -9.65,-23.2 -13.04,-39.3 -13.07,-62 -0.1,-63.6 40.35,-123.2 100.05,-147.5 24.79,-10.1 52.69,-13.1 77.24,-9.8 61.27,8.1 137.27,96.2 121.29,106.8 -59.375,39.5 -42.335,58.5 -6.386,102.8 5.255,6.5 -15.66,3.4 -17.178,3 -21.422,-5.8 28.181,8.1 23.335,8.2 -4.845,0 -80.035,-0.4 -125.61,6.9 -79.78,12.6 -101.22,20.6 -116.43,18 -10.79,1.5 -7.62,6.9 -16.15,-2.6 z"
                 style="opacity:0.99591998;fill:#ffffff"
                 id="path5041"
                 inkscape:connector-curvature="0" />
              <path
                 d="m 46.173,1581.9 c -23.148,-3 -32.6,-7.8 -36.052,-18.4 -3.21,-9.8 -4.3504,-183.4 -1.2478,-190 1.4628,-3.1 -2.8891,-7.9 -15.512,-17.1 -74.27,-54.5 -72.117,-171.3 4.1906,-227.5 17.252,-12.7 22.479,-21.6 13.575,-23.2 -6.3529,-1.2 -39.978,25.3 -51.1,40.2 l -9.672,12.9 -14.789,-8.3 c -23.8,-13.4 -46.586,-20.1 -74.966,-21.9 -33.8,-2.1 -55.87,2.2 -86.62,17 -39.36,18.8 -73.41,57.1 -86.99,97.7 -11.58,34.6 -11.03,78.7 1.43,114.9 3.06,8.9 5.56,16.4 5.56,16.7 0,0.3 -23.46,-5.8 -52.14,-13.6 -41.01,-11 -57.33,-14.1 -76.43,-14.5 l -24.28,-0.4 -5.24,10 c -4.86,9.2 -5.13,16.3 -3.68,95.7 1.36,73.9 0.08,107 -4.29,111.3 -0.6,0.5 -15.81,3.1 -33.82,5.6 -38.2,5.3 -83.04,5.6 -97.16,0.8 -22.43,-7.7 -28.61,-32.4 -22.98,-91.6 6.36,-67 6.99,-111.4 1.81,-127.3 l -4.59,-14 20.06,-20.1 c 14.07,-14 22.54,-25.5 28.39,-38.4 9.6,-21.2 15.64,-51.5 13.69,-68.8 l -1.35,-11.9 19.92,-12.8 c 80.38,-51.7 92.84,-137.6 29.2,-201.49 l -17.18,-17.24 6.42,-11.33 c 12.82,-22.65 19.03,-46.85 19.2,-74.89 0.09,-14.53 1.03,-26.42 2.09,-26.43 1.05,-0.01 10.27,-5.62 20.47,-12.46 l 18.56,-12.45 73.25,-1.45 c 66.65,-1.32 73.09,-1.04 71.4,3.16 -12.2,30.33 -15.98,74.64 -8.79,103.19 15.78,62.66 64.17,111.59 124.34,125.69 27.02,6.4 64.17,4.7 90.17,-4.1 52.12,-17.6 89.395,-54.8 107.51,-107.3 8.8935,-25.79 9.1512,-76.47 0.51,-100.96 l -5.883,-16.67 37.553,1.96 c 74.353,3.88 84.21,6.42 109.99,28.43 47.58,40.61 78.83,94.01 88.94,151.94 3.82,21.9 3.93,117.9 0.18,158.1 -3.92,42.2 -3.8,45.8 1.61,45.8 2.52,0 12.81,3.9 22.86,8.7 24.99,11.9 28.22,18.5 25.64,52.6 -1.08,14.2 -4.16,37.8 -6.85,52.4 l -4.88,26.6 -17.19,-15.5 c -13.08,-11.9 -20.01,-21.3 -28.98,-39.5 l -11.78,-23.9 -6.13,-130 c -3.38,-71.5 -6.77,-134.2 -7.55,-139.3 -1.05,-6.8 -2.9,-9.29 -7.01,-9.29 -6.93,0 -7.06,-14.08 1.52,153.89 l 7.07,138.2 -11.9,29 -11.89,28.9 -1.28,110.7 -1.27,110.7 -14.63,4.4 c -11.59,3.4 -75.552,10.9 -81.772,9.5 -0.786,-0.2 -9.444,-1.3 -19.239,-2.6 h 0.004 z"
                 style="opacity:0.99591998;fill:#ffffff"
                 id="path5043"
                 inkscape:connector-curvature="0" />
              <path
                 d="m -227.98,1046.1 c -26.2,-6.4 -50.13,-20.5 -72.47,-42.9 -32.81,-32.93 -44.98,-62.72 -44.98,-110.14 -0.01,-20.73 1.54,-30.87 7.2,-47.14 3.96,-11.4 7.61,-21.09 8.11,-21.52 2,-1.76 275.09,3.31 278.08,5.16 12.451,7.7 19.593,75.05 11.071,104.38 -8.235,28.34 -21.252,50.53 -41.554,70.86 -38.607,38.5 -92.957,54 -145.45,41.3 h -0.01 z"
                 style="opacity:0.99591998;fill:#ffffff"
                 id="path5045"
                 inkscape:connector-curvature="0" />
              <path
                 d="m -514.29,823.79 c 0,0 411.27,-5.97 594.29,8.57 34.83,2.77 63.17,33.31 86.29,59.51 25.69,29.1 44.49,65.63 53.71,103.35 17.18,70.28 0,217.18 0,217.18 0,0 49.3,11 54.54,38.2 5.24,27.1 -14.54,118.9 -14.54,118.9 0,0 -34.43,-23.1 -43.96,-37.4 -9.52,-14.3 -21.76,-42.6 -21.76,-42.6 l -11.65,28.4 -14.06,34.4 c 0,0 -6.41,200.5 -2.86,220 3.55,19.5 -143.88,34.2 -156.54,3.5 C -3.489,1545.1 3.4544,1376 3.4544,1376 l -23.464,-15.2 c 0,0 -154.38,33.7 -228.6,32.8 -74.22,-0.9 -192.74,-57.5 -211.4,-35.7 -18.66,21.9 10.73,195.4 -11.43,214.3 0,0 -125.01,25.9 -151.43,0 -37.6,-36.8 10.1,-171.7 -11.43,-220 -21.53,-48.3 -50.1,-42.7 -68.67,-68.5 -18.58,-25.7 -42.76,-85.7 -42.76,-85.7 l 231.44,-374.21 z"
                 style="fill:#ffffff;stroke:#000000;stroke-width:10"
                 sodipodi:nodetypes="cssccccscccscccscccsscc"
                 id="path5047"
                 inkscape:connector-curvature="0" />
              <path
                 d="m -650.85,1320.1 c -3.08,-3.9 -15.03,-12.7 -26.54,-19.7 -14.94,-9 -23.85,-17 -31.09,-27.7 -9.57,-14.1 -24.61,-43.5 -26.11,-46 -7.76,-12.8 7.98,-10.7 20.89,-9.9 28.21,1.7 79.38,5.3 109.3,-4.2 l 21.24,-6.7 v 17.8 c 0,31.8 -14.17,63.1 -39.25,86.8 -17.61,16.6 -21.76,18 -28.44,9.6 z"
                 style="opacity:0.99591998;fill:#ffffff"
                 id="path5049"
                 inkscape:connector-curvature="0" />
              <g
                 style="fill:#ffffff"
                 transform="matrix(1.0283,0,0,1.0484,-1265.8,147.21)"
                 id="g5051">
                <path
                   d="m 317.14,563.79 c -18.7,18.18 1.66,54.34 14.88,76.82 10.59,18.01 47.98,40.32 47.98,40.32 l 45.71,-65.71 c 0,0 -21.59,-27.3 -36.49,-35.34 -21.67,-11.68 -54.43,-33.25 -72.08,-16.09 z"
                   style="fill:#ffffff;stroke:#080505;stroke-width:10"
                   id="path5053"
                   inkscape:connector-curvature="0" />
                <path
                   d="m 800.54,585.87 c -12.92,-22.66 -53.03,-11.99 -78.1,-4.81 -20.09,5.75 -51.04,36.37 -51.04,36.37 l 52.19,60.7 c 0,0 31.83,-14.08 43.34,-26.5 16.73,-18.06 45.81,-44.38 33.61,-65.76 z"
                   style="fill:#ffffff;stroke:#080505;stroke-width:10"
                   id="path5055"
                   inkscape:connector-curvature="0" />
                <path
                   d="m 458.8,559.51 c 0,0 -17.06,-14.94 -18.93,-25.65 -1.71,-9.82 8.27,-28.64 8.27,-28.64 0,0 -34.8,15.1 -41.42,31.88 -8.35,21.14 9.43,68.12 9.43,68.12 l 42.65,-45.71 z"
                   style="fill:#ffffff;stroke:#080505;stroke-width:10"
                   id="path5057"
                   inkscape:connector-curvature="0" />
                <path
                   d="m 645.71,563.79 c 0,0 18.29,-14.94 20.29,-25.65 1.83,-9.82 -8.86,-28.64 -8.86,-28.64 0,0 37.3,15.1 44.4,31.88 8.94,21.14 -10.12,68.12 -10.12,68.12 l -45.71,-45.71 z"
                   style="fill:#ffffff;stroke:#080505;stroke-width:10"
                   id="path5059"
                   inkscape:connector-curvature="0" />
                <path
                   transform="matrix(1.2022,0,0,1.5019,1433.7,-881.71)"
                   d="m -585.71,1053.8 a 152.86,107.14 0 1 1 -305.72,0 152.86,107.14 0 1 1 305.72,0 z"
                   style="opacity:0.99591998;fill:#ffffff;stroke:#080505;stroke-width:7.44199991"
                   id="path5061"
                   inkscape:connector-curvature="0" />
                <path
                   transform="matrix(1.3101,0,0,1.2896,1527,-470.92)"
                   d="m -585.71,1053.8 a 152.86,107.14 0 1 1 -305.72,0 152.86,107.14 0 1 1 305.72,0 z"
                   style="opacity:0.99591998;fill:#ffffff;stroke:#080505;stroke-width:7.9066"
                   id="path5063"
                   inkscape:connector-curvature="0" />
                <path
                   transform="translate(-428.57,-317.14)"
                   d="m 934.29,1052.4 a 21.43,20.000933 0 1 1 -42.86,0 21.43,20.000933 0 1 1 42.86,0 z"
                   style="opacity:0.99591998;fill:#ffffff;stroke:#080505;stroke-width:10"
                   id="path5065"
                   inkscape:connector-curvature="0" />
                <path
                   transform="translate(-315.71,-325.71)"
                   d="m 934.29,1052.4 a 21.43,20.000933 0 1 1 -42.86,0 21.43,20.000933 0 1 1 42.86,0 z"
                   style="opacity:0.99591998;fill:#ffffff;stroke:#080505;stroke-width:10"
                   id="path5067"
                   inkscape:connector-curvature="0" />
                <path
                   d="m 474.29,920.93 c 0,0 53.94,26.19 82.85,25.72 26.2,-0.43 74.29,-25.72 74.29,-25.72"
                   style="fill:#ffffff;stroke:#000000;stroke-width:10;stroke-linecap:round;stroke-linejoin:round"
                   inkscape:original-d="m 474.28571,920.93361 c 0,0 53.9424,26.18165 82.85715,25.71429 26.20003,-0.42349 74.28571,-25.71429 74.28571,-25.71429"
                   id="path5069"
                   inkscape:connector-curvature="0" />
              </g>
              <path
                 inkscape:original-d="m 11.428572,1112.3621 c 0,0 -84.551675,98.2546 -81.235817,157.121 2.449454,43.4852 73.4537339,104.9075 73.4537339,104.9075"
                 sodipodi:nodetypes="csc"
                 d="m 11.429,1112.4 c 0,0 -84.552,98.2 -81.236,157.1 2.449,43.5 73.454,104.9 73.454,104.9"
                 style="fill:#ffffff;stroke:#000000;stroke-width:10;stroke-linecap:round"
                 id="path5071"
                 inkscape:connector-curvature="0" />
              <path
                 d="m 177.14,1003.8 14.29,285.5"
                 style="fill:#ffffff;stroke:#000000;stroke-width:10.14799976;stroke-linecap:round;stroke-linejoin:round"
                 id="path5073"
                 inkscape:connector-curvature="0" />
              <path
                 d="m -694.29,1289.5 -1.3,220.1 c 0,0 -46.68,64 41.3,54.2 7.64,-0.9 20,-11.4 20,-11.4"
                 style="fill:#ffffff;stroke:#000000;stroke-width:10"
                 inkscape:original-d="m -694.28572,1289.5051 -1.30051,220.053 c 0,0 -46.68177,63.9951 41.30051,54.2326 7.63151,-0.8468 20.00001,-11.4285 20.00001,-11.4285"
                 id="path5075"
                 inkscape:connector-curvature="0" />
              <path
                 d="m -3.9333,1372.7 -41.548,-8.3 -165.94,25.1 c 0,0 20.85,24.3 47.37,45.8 -0.54,-0.1 -1.09,-0.1 -1.65,-0.1 -9.47,0 -17.16,9.6 -17.16,21.4 0,11.9 7.69,21.5 17.16,21.5 9.47,0 17.12,-9.6 17.12,-21.5 0,-4.2 -1,-8.2 -2.72,-11.5 11.58,8.2 23.72,15.3 35.35,19.2 -2.52,3.7 -4.03,8.5 -4.03,13.8 0,11.8 7.65,21.4 17.12,21.4 9.47,0 17.158,-9.6 17.158,-21.4 0,-4.4 -1.054,-8.5 -2.844,-11.8 13.599,-3.5 27.598,-14.1 40.344,-27 -0.245,1.5 -0.375,2.9 -0.375,4.5 0,11.8 7.689,21.4 17.156,21.4 9.468,0 17.125,-9.6 17.125,-21.4 0,-11.9 -7.657,-21.5 -17.125,-21.5 -0.55,0 -1.088,0.1 -1.625,0.2 19.324,-23.5 33.062,-47.3 33.062,-47.3 l -3.9493,-2.5 z"
                 style="fill:#ffffff;stroke:#000000;stroke-width:10"
                 sodipodi:nodetypes="ccccssssccsssccssssccc"
                 id="path5077"
                 inkscape:connector-curvature="0" />
            </g>
          </g>
        </g>
        <g
           id="g5079"
           transform="translate(-942.15329,36.466593)">
          <g
             id="g5081"
             transform="matrix(0.4749,0,0,0.6102,293.53,138.46)">
            <g
               id="g5083"
               transform="translate(434.29,-397.14)">
              <path
                 inkscape:connector-curvature="0"
                 id="path5085"
                 style="opacity:0.99591998;fill:#241c1c"
                 d="m -268.6,1390.8 c -7.9,-1.3 -20.59,-8.2 -27.09,-23.8 -9.65,-23.2 -13.04,-39.3 -13.07,-62 -0.1,-63.6 40.35,-123.2 100.05,-147.5 24.79,-10.1 52.69,-13.1 77.24,-9.8 61.27,8.1 137.27,96.2 121.29,106.8 -59.375,39.5 -42.335,58.5 -6.386,102.8 5.255,6.5 -15.66,3.4 -17.178,3 -21.422,-5.8 28.181,8.1 23.335,8.2 -4.845,0 -80.035,-0.4 -125.61,6.9 -79.78,12.6 -101.22,20.6 -116.43,18 -10.79,1.5 -7.62,6.9 -16.15,-2.6 z" />
              <path
                 inkscape:connector-curvature="0"
                 id="path5087"
                 style="opacity:0.99591998;fill:#ffffff"
                 d="m 46.173,1581.9 c -23.148,-3 -32.6,-7.8 -36.052,-18.4 -3.21,-9.8 -4.3504,-183.4 -1.2478,-190 1.4628,-3.1 -2.8891,-7.9 -15.512,-17.1 -74.27,-54.5 -72.117,-171.3 4.1906,-227.5 17.252,-12.7 22.479,-21.6 13.575,-23.2 -6.3529,-1.2 -39.978,25.3 -51.1,40.2 l -9.672,12.9 -14.789,-8.3 c -23.8,-13.4 -46.586,-20.1 -74.966,-21.9 -33.8,-2.1 -55.87,2.2 -86.62,17 -39.36,18.8 -73.41,57.1 -86.99,97.7 -11.58,34.6 -11.03,78.7 1.43,114.9 3.06,8.9 5.56,16.4 5.56,16.7 0,0.3 -23.46,-5.8 -52.14,-13.6 -41.01,-11 -57.33,-14.1 -76.43,-14.5 l -24.28,-0.4 -5.24,10 c -4.86,9.2 -5.13,16.3 -3.68,95.7 1.36,73.9 0.08,107 -4.29,111.3 -0.6,0.5 -15.81,3.1 -33.82,5.6 -38.2,5.3 -83.04,5.6 -97.16,0.8 -22.43,-7.7 -28.61,-32.4 -22.98,-91.6 6.36,-67 6.99,-111.4 1.81,-127.3 l -4.59,-14 20.06,-20.1 c 14.07,-14 22.54,-25.5 28.39,-38.4 9.6,-21.2 15.64,-51.5 13.69,-68.8 l -1.35,-11.9 19.92,-12.8 c 80.38,-51.7 92.84,-137.6 29.2,-201.49 l -17.18,-17.24 6.42,-11.33 c 12.82,-22.65 19.03,-46.85 19.2,-74.89 0.09,-14.53 1.03,-26.42 2.09,-26.43 1.05,-0.01 10.27,-5.62 20.47,-12.46 l 18.56,-12.45 73.25,-1.45 c 66.65,-1.32 73.09,-1.04 71.4,3.16 -12.2,30.33 -15.98,74.64 -8.79,103.19 15.78,62.66 64.17,111.59 124.34,125.69 27.02,6.4 64.17,4.7 90.17,-4.1 52.12,-17.6 89.395,-54.8 107.51,-107.3 8.8935,-25.79 9.1512,-76.47 0.51,-100.96 l -5.883,-16.67 37.553,1.96 c 74.353,3.88 84.21,6.42 109.99,28.43 47.58,40.61 78.83,94.01 88.94,151.94 3.82,21.9 3.93,117.9 0.18,158.1 -3.92,42.2 -3.8,45.8 1.61,45.8 2.52,0 12.81,3.9 22.86,8.7 24.99,11.9 28.22,18.5 25.64,52.6 -1.08,14.2 -4.16,37.8 -6.85,52.4 l -4.88,26.6 -17.19,-15.5 c -13.08,-11.9 -20.01,-21.3 -28.98,-39.5 l -11.78,-23.9 -6.13,-130 c -3.38,-71.5 -6.77,-134.2 -7.55,-139.3 -1.05,-6.8 -2.9,-9.29 -7.01,-9.29 -6.93,0 -7.06,-14.08 1.52,153.89 l 7.07,138.2 -11.9,29 -11.89,28.9 -1.28,110.7 -1.27,110.7 -14.63,4.4 c -11.59,3.4 -75.552,10.9 -81.772,9.5 -0.786,-0.2 -9.444,-1.3 -19.239,-2.6 h 0.004 z" />
              <path
                 inkscape:connector-curvature="0"
                 id="path5089"
                 style="opacity:0.99591998;fill:#241c1c"
                 d="m -227.98,1046.1 c -26.2,-6.4 -50.13,-20.5 -72.47,-42.9 -32.81,-32.93 -44.98,-62.72 -44.98,-110.14 -0.01,-20.73 1.54,-30.87 7.2,-47.14 3.96,-11.4 7.61,-21.09 8.11,-21.52 2,-1.76 275.09,3.31 278.08,5.16 12.451,7.7 19.593,75.05 11.071,104.38 -8.235,28.34 -21.252,50.53 -41.554,70.86 -38.607,38.5 -92.957,54 -145.45,41.3 h -0.01 z" />
              <path
                 inkscape:connector-curvature="0"
                 id="path5091"
                 sodipodi:nodetypes="cssccccscccscccscccsscc"
                 style="fill:none;stroke:#000000;stroke-width:10"
                 d="m -514.29,823.79 c 0,0 411.27,-5.97 594.29,8.57 34.83,2.77 63.17,33.31 86.29,59.51 25.69,29.1 44.49,65.63 53.71,103.35 17.18,70.28 0,217.18 0,217.18 0,0 49.3,11 54.54,38.2 5.24,27.1 -14.54,118.9 -14.54,118.9 0,0 -34.43,-23.1 -43.96,-37.4 -9.52,-14.3 -21.76,-42.6 -21.76,-42.6 l -11.65,28.4 -14.06,34.4 c 0,0 -6.41,200.5 -2.86,220 3.55,19.5 -143.88,34.2 -156.54,3.5 C -3.489,1545.1 3.4544,1376 3.4544,1376 l -23.464,-15.2 c 0,0 -154.38,33.7 -228.6,32.8 -74.22,-0.9 -192.74,-57.5 -211.4,-35.7 -18.66,21.9 10.73,195.4 -11.43,214.3 0,0 -125.01,25.9 -151.43,0 -37.6,-36.8 10.1,-171.7 -11.43,-220 -21.53,-48.3 -50.1,-42.7 -68.67,-68.5 -18.58,-25.7 -42.76,-85.7 -42.76,-85.7 l 231.44,-374.21 z" />
              <path
                 inkscape:connector-curvature="0"
                 id="path5093"
                 style="opacity:0.99591998;fill:#241c1c"
                 d="m -650.85,1320.1 c -3.08,-3.9 -15.03,-12.7 -26.54,-19.7 -14.94,-9 -23.85,-17 -31.09,-27.7 -9.57,-14.1 -24.61,-43.5 -26.11,-46 -7.76,-12.8 7.98,-10.7 20.89,-9.9 28.21,1.7 79.38,5.3 109.3,-4.2 l 21.24,-6.7 v 17.8 c 0,31.8 -14.17,63.1 -39.25,86.8 -17.61,16.6 -21.76,18 -28.44,9.6 z" />
              <g
                 id="g5095"
                 transform="matrix(1.0283,0,0,1.0484,-1265.8,147.21)">
                <path
                   inkscape:connector-curvature="0"
                   id="path5097"
                   style="fill:#deaa87;stroke:#080505;stroke-width:10"
                   d="m 317.14,563.79 c -18.7,18.18 1.66,54.34 14.88,76.82 10.59,18.01 47.98,40.32 47.98,40.32 l 45.71,-65.71 c 0,0 -21.59,-27.3 -36.49,-35.34 -21.67,-11.68 -54.43,-33.25 -72.08,-16.09 z" />
                <path
                   inkscape:connector-curvature="0"
                   id="path5099"
                   style="fill:#deaa87;stroke:#080505;stroke-width:10"
                   d="m 800.54,585.87 c -12.92,-22.66 -53.03,-11.99 -78.1,-4.81 -20.09,5.75 -51.04,36.37 -51.04,36.37 l 52.19,60.7 c 0,0 31.83,-14.08 43.34,-26.5 16.73,-18.06 45.81,-44.38 33.61,-65.76 z" />
                <path
                   inkscape:connector-curvature="0"
                   id="path5101"
                   style="fill:#502d16;stroke:#080505;stroke-width:10"
                   d="m 458.8,559.51 c 0,0 -17.06,-14.94 -18.93,-25.65 -1.71,-9.82 8.27,-28.64 8.27,-28.64 0,0 -34.8,15.1 -41.42,31.88 -8.35,21.14 9.43,68.12 9.43,68.12 l 42.65,-45.71 z" />
                <path
                   inkscape:connector-curvature="0"
                   id="path5103"
                   style="fill:#502d16;stroke:#080505;stroke-width:10"
                   d="m 645.71,563.79 c 0,0 18.29,-14.94 20.29,-25.65 1.83,-9.82 -8.86,-28.64 -8.86,-28.64 0,0 37.3,15.1 44.4,31.88 8.94,21.14 -10.12,68.12 -10.12,68.12 l -45.71,-45.71 z" />
                <path
                   inkscape:connector-curvature="0"
                   id="path5105"
                   style="opacity:0.99591998;fill:#ffffff;stroke:#080505;stroke-width:7.44199991"
                   d="m -585.71,1053.8 a 152.86,107.14 0 1 1 -305.72,0 152.86,107.14 0 1 1 305.72,0 z"
                   transform="matrix(1.2022,0,0,1.5019,1433.7,-881.71)" />
                <path
                   inkscape:connector-curvature="0"
                   id="path5107"
                   style="opacity:0.99591998;fill:#deaa87;stroke:#080505;stroke-width:7.9066"
                   d="m -585.71,1053.8 a 152.86,107.14 0 1 1 -305.72,0 152.86,107.14 0 1 1 305.72,0 z"
                   transform="matrix(1.3101,0,0,1.2896,1527,-470.92)" />
                <path
                   inkscape:connector-curvature="0"
                   id="path5109"
                   style="opacity:0.99591998;fill:#000000;stroke:#080505;stroke-width:10"
                   d="m 934.29,1052.4 a 21.43,20.000933 0 1 1 -42.86,0 21.43,20.000933 0 1 1 42.86,0 z"
                   transform="translate(-428.57,-317.14)" />
                <path
                   inkscape:connector-curvature="0"
                   id="path5111"
                   style="opacity:0.99591998;fill:#000000;stroke:#080505;stroke-width:10"
                   d="m 934.29,1052.4 a 21.43,20.000933 0 1 1 -42.86,0 21.43,20.000933 0 1 1 42.86,0 z"
                   transform="translate(-315.71,-325.71)" />
                <path
                   inkscape:connector-curvature="0"
                   id="path5113"
                   inkscape:original-d="m 474.28571,920.93361 c 0,0 53.9424,26.18165 82.85715,25.71429 26.20003,-0.42349 74.28571,-25.71429 74.28571,-25.71429"
                   style="fill:none;stroke:#000000;stroke-width:10;stroke-linecap:round;stroke-linejoin:round"
                   d="m 474.29,920.93 c 0,0 53.94,26.19 82.85,25.72 26.2,-0.43 74.29,-25.72 74.29,-25.72" />
              </g>
              <path
                 inkscape:connector-curvature="0"
                 id="path5115"
                 style="fill:none;stroke:#000000;stroke-width:10;stroke-linecap:round"
                 d="m 11.429,1112.4 c 0,0 -84.552,98.2 -81.236,157.1 2.449,43.5 73.454,104.9 73.454,104.9"
                 sodipodi:nodetypes="csc"
                 inkscape:original-d="m 11.428572,1112.3621 c 0,0 -84.551675,98.2546 -81.235817,157.121 2.449454,43.4852 73.4537339,104.9075 73.4537339,104.9075" />
              <path
                 inkscape:connector-curvature="0"
                 id="path5117"
                 style="fill:none;stroke:#000000;stroke-width:10.14799976;stroke-linecap:round;stroke-linejoin:round"
                 d="m 177.14,1003.8 14.29,285.5" />
              <path
                 inkscape:connector-curvature="0"
                 id="path5119"
                 inkscape:original-d="m -694.28572,1289.5051 -1.30051,220.053 c 0,0 -46.68177,63.9951 41.30051,54.2326 7.63151,-0.8468 20.00001,-11.4285 20.00001,-11.4285"
                 style="fill:#ffffff;stroke:#000000;stroke-width:10"
                 d="m -694.29,1289.5 -1.3,220.1 c 0,0 -46.68,64 41.3,54.2 7.64,-0.9 20,-11.4 20,-11.4" />
              <path
                 inkscape:connector-curvature="0"
                 id="path5121"
                 sodipodi:nodetypes="ccccssssccsssccssssccc"
                 style="fill:#ffaaaa;stroke:#000000;stroke-width:10"
                 d="m -3.9333,1372.7 -41.548,-8.3 -165.94,25.1 c 0,0 20.85,24.3 47.37,45.8 -0.54,-0.1 -1.09,-0.1 -1.65,-0.1 -9.47,0 -17.16,9.6 -17.16,21.4 0,11.9 7.69,21.5 17.16,21.5 9.47,0 17.12,-9.6 17.12,-21.5 0,-4.2 -1,-8.2 -2.72,-11.5 11.58,8.2 23.72,15.3 35.35,19.2 -2.52,3.7 -4.03,8.5 -4.03,13.8 0,11.8 7.65,21.4 17.12,21.4 9.47,0 17.158,-9.6 17.158,-21.4 0,-4.4 -1.054,-8.5 -2.844,-11.8 13.599,-3.5 27.598,-14.1 40.344,-27 -0.245,1.5 -0.375,2.9 -0.375,4.5 0,11.8 7.689,21.4 17.156,21.4 9.468,0 17.125,-9.6 17.125,-21.4 0,-11.9 -7.657,-21.5 -17.125,-21.5 -0.55,0 -1.088,0.1 -1.625,0.2 19.324,-23.5 33.062,-47.3 33.062,-47.3 l -3.9493,-2.5 z" />
            </g>
          </g>
        </g>
      </g>
    </g>
  </g>
</svg>
